<svg width="40" height="50" fill="none" xmlns="http://www.w3.org/2000/svg"><g clip-path="url(#clip0)"><path d="M35.238 10H4.762c-2.63.001-4.76 2.343-4.762 5.232v19.536C.001 37.657 2.132 39.999 4.762 40h30.476c2.63 0 4.76-2.343 4.762-5.232V15.232c-.001-2.889-2.132-5.231-4.762-5.232zM4.762 12.093h30.476c1.372.004 2.549 1.073 2.81 2.553L20 25.696 1.952 14.646c.261-1.48 1.438-2.55 2.81-2.553zm30.476 25.804H4.762c-1.576-.005-2.853-1.408-2.857-3.14V17.012l17.628 10.798a.935.935 0 00.467.137.841.841 0 00.467-.137l17.628-10.798v17.747c-.001 1.733-1.28 3.137-2.857 3.14z" fill="#929498"/></g><defs><clipPath id="clip0"><path fill="#fff" d="M0 0h40v50H0z"/></clipPath></defs></svg>