<svg width="25" height="25" fill="none" xmlns="http://www.w3.org/2000/svg"><path d="M19.873 0H5.127A5.133 5.133 0 0 0 0 5.127v14.746C0 22.7 2.3 25 5.127 25h14.746C22.7 25 25 22.7 25 19.873V5.127C25 2.3 22.7 0 19.873 0zm-.766 18.061-.392.654c-1.526 1.525-5.545-.02-8.977-3.453C6.306 11.83 4.76 7.811 6.285 6.285l.654-.392a1.25 1.25 0 0 1 1.716.429l.926 1.543a1.25 1.25 0 0 1-.188 1.528 1.465 1.465 0 0 0 0 2.071l4.143 4.143c.572.572 1.5.572 2.071 0a1.25 1.25 0 0 1 1.528-.188l1.543.926a1.25 1.25 0 0 1 .43 1.716z" fill="#fff"/></svg>