<!DOCTYPE svg PUBLIC "-//W3C//DTD SVG 1.1//EN" "http://www.w3.org/Graphics/SVG/1.1/DTD/svg11.dtd"><svg xmlns="http://www.w3.org/2000/svg" viewBox="0 0 511 511"><path d="M503.5 424H495V183.5c0-17.369-14.131-31.5-31.5-31.5H343v-.5c0-12.958-10.542-23.5-23.5-23.5H287V95.5c0-12.958-10.542-23.5-23.5-23.5h-16C234.542 72 224 82.542 224 95.5V128h-32.5c-12.958 0-23.5 10.542-23.5 23.5v.5H47.5C30.131 152 16 166.131 16 183.5V424H7.5a7.5 7.5 0 000 15h496a7.5 7.5 0 000-15zm-40-257c9.098 0 16.5 7.402 16.5 16.5V208H287v-17h32.5c12.958 0 23.5-10.542 23.5-23.5v-.5h120.5zm-272-24h40a7.5 7.5 0 007.5-7.5v-40c0-4.687 3.813-8.5 8.5-8.5h16c4.687 0 8.5 3.813 8.5 8.5v40a7.5 7.5 0 007.5 7.5h40c4.687 0 8.5 3.813 8.5 8.5v7.981l-.001.019.001.019v7.981c0 4.687-3.813 8.5-8.5 8.5h-40a7.5 7.5 0 00-7.5 7.5v40c0 4.687-3.813 8.5-8.5 8.5h-16c-4.687 0-8.5-3.813-8.5-8.5v-40a7.5 7.5 0 00-7.5-7.5h-40c-4.687 0-8.5-3.813-8.5-8.5v-7.981l.001-.019-.001-.019V151.5c0-4.687 3.813-8.5 8.5-8.5zm-144 24H168v.5c0 12.958 10.542 23.5 23.5 23.5H224v17H31v-24.5c0-9.098 7.402-16.5 16.5-16.5zM31 223h193v.5c0 12.958 10.542 23.5 23.5 23.5h16c12.958 0 23.5-10.542 23.5-23.5v-.5h193v201H239V279.5c0-8.547-6.953-15.5-15.5-15.5h-152c-8.547 0-15.5 6.953-15.5 15.5V424H31V223zm193 137H71v-17h153v17zm0-32H71v-17h153v17zM71 375h153v17H71v-17zm153-79H71v-16.5a.5.5 0 01.5-.5h152a.5.5 0 01.5.5V296zM71 407h153v17H71v-17z"/><path d="M264.5 399h78c4.687 0 8.5-3.813 8.5-8.5v-118c0-4.687-3.813-8.5-8.5-8.5h-78c-4.687 0-8.5 3.813-8.5 8.5v118c0 4.687 3.813 8.5 8.5 8.5zm6.5-15v-73h65v73h-65zm65-105v17h-65v-17h65zM376.5 399h78c4.687 0 8.5-3.813 8.5-8.5v-118c0-4.687-3.813-8.5-8.5-8.5h-78c-4.687 0-8.5 3.813-8.5 8.5v118c0 4.687 3.813 8.5 8.5 8.5zm6.5-15v-73h65v73h-65zm65-105v17h-65v-17h65z"/></svg>