<svg height="512" width="512" xmlns="http://www.w3.org/2000/svg"><path d="M348.653 333.926a9.925 9.925 0 00-.619-.54l-38.393-30.76c-15.529-14.439-38.373-17.39-56.993-7.315-9.11 4.933-23.375 4.239-27.256-1.324l-70.451-101c-3.883-5.567.389-19.204 8.164-26.058 15.876-13.999 20.992-36.463 12.804-56.025l-15.615-46.667c-.087-.26-.185-.516-.292-.768-6.193-14.445-17.991-24.527-33.219-28.389-15.229-3.867-30.403-.629-42.727 9.111-60.759 48-71.514 101.085-31.968 157.779l129.376 185.477c23.097 33.113 50.96 49.69 83.287 49.69 14.085 0 29.017-3.147 44.771-9.444v8.76c0 7.799-6.345 14.144-14.144 14.144H192.452c-5.522 0-10 4.477-10 10s4.478 10 10 10H295.38c18.827 0 34.144-15.317 34.144-34.144v-18.208a237.493 237.493 0 0010.983-6.349 49.763 49.763 0 002.623-1.714c11.84-8.265 19.19-20.792 20.695-35.271 1.634-15.628-3.754-30.183-15.172-40.985zm-4.719 38.911c-.909 8.742-5.146 15.985-12.256 20.948a29.76 29.76 0 01-1.598 1.044c-27.734 17.012-52.466 24.374-73.523 21.876-22.226-2.635-41.423-15.949-58.688-40.701L68.493 190.527c-17.268-24.754-23.135-47.375-17.937-69.157 4.922-20.627 20.364-41.314 45.9-61.488 5.311-4.198 11.51-6.364 17.968-6.364 2.454 0 4.946.313 7.44.946 9.063 2.298 15.832 8.011 19.601 16.531l15.6 46.621c.087.259.185.516.293.767 5.015 11.696 2.009 25.176-7.479 33.542-14.049 12.383-22.162 36.991-11.342 52.502l70.45 101c10.82 15.51 36.711 16.387 53.18 7.471 11.124-6.018 24.806-4.189 34.046 4.552.199.188.405.368.619.54l38.354 30.729c6.697 6.482 9.72 14.811 8.748 24.118z"/><path d="M358.553 0c-73.086 0-132.545 59.48-132.545 132.591a132.54 132.54 0 0029.154 82.972l-10.221 36.953a9.999 9.999 0 0012.415 12.272l43.783-12.661c17.79 8.551 37.551 13.054 57.412 13.054 73.085 0 132.544-59.48 132.544-132.591S431.638 0 358.553 0zm0 245.182c-18.285 0-35.721-4.246-51.823-12.618a9.993 9.993 0 00-7.391-.734l-30.352 8.777 6.851-24.768a10.002 10.002 0 00-2.103-9.241 112.528 112.528 0 01-27.727-74.006C246.008 70.508 296.495 20 358.553 20c62.057 0 112.544 50.508 112.544 112.591s-50.488 112.591-112.544 112.591z"/><path d="M419.582 99.86h-28.308V71.539c0-5.523-4.478-10-10-10H335.83c-5.522 0-10 4.477-10 10V99.86h-28.307c-5.522 0-10 4.477-10 10v45.461c0 5.523 4.478 10 10 10h28.307v28.322c0 5.523 4.478 10 10 10h45.444c5.522 0 10-4.477 10-10v-28.322h28.308c5.522 0 10-4.477 10-10V109.86c0-5.523-4.478-10-10-10zm-10 45.461h-28.308c-5.522 0-10 4.477-10 10v28.322H345.83v-28.322c0-5.523-4.478-10-10-10h-28.307V119.86h28.307c5.522 0 10-4.477 10-10V81.539h25.444v28.322c0 5.523 4.478 10 10 10h28.308zM245.618 492H51.605c-5.901 0-10.702-4.801-10.702-10.702s4.801-10.702 10.702-10.702h50.435c5.522 0 10-4.477 10-10s-4.478-10-10-10H51.605c-16.93 0-30.702 13.773-30.702 30.702S34.675 512 51.605 512h194.013c5.522 0 10-4.477 10-10s-4.477-10-10-10z"/><path d="M139.109 466.15c2.34 3.476 6.742 5.184 10.808 4.13 3.922-1.017 6.874-4.364 7.422-8.376.556-4.073-1.576-8.197-5.198-10.126-3.783-2.015-8.581-1.361-11.664 1.628-3.421 3.317-4.009 8.774-1.368 12.744z"/></svg>