<svg width="612" height="612" viewBox="0 0 612 612" fill="none" xmlns="http://www.w3.org/2000/svg">
<path d="M587.572 186.882C555.3 111.658 500.506 56.864 425.289 24.598C387.413 8.35199 347.995 0.17099 306.5 0.17099C265.012 0.17099 225.287 8.42999 187.382 24.598C111.53 56.949 56.415 111.537 24.092 186.882C7.902 224.629 0 264.176 0 305.664C0 347.159 7.902 387.034 24.092 424.788C56.415 500.134 111.53 555.058 187.382 587.407C225.287 603.569 265.012 611.829 306.5 611.829C347.995 611.829 387.413 603.655 425.289 587.407C500.506 555.136 555.3 500.005 587.572 424.788C603.819 386.913 612 347.159 612 305.664C612 264.176 603.819 224.758 587.572 186.882ZM553.444 410.397C539.246 443.461 520.314 472.301 496.222 496.393C472.466 520.149 443.691 539.223 410.562 553.608C377.44 567.999 342.976 575.022 306.5 575.022C257.98 575.022 212.766 563.051 171.321 538.887C130.118 514.867 97.303 482.045 73.282 440.85C49.119 399.397 37.141 354.182 37.141 305.663C37.141 257.143 49.19 212.308 73.282 171.155C97.374 129.995 130.118 97.131 171.321 73.117C212.766 48.947 257.981 36.975 306.5 36.975C355.019 36.975 399.855 49.025 441.015 73.117C482.168 97.209 514.833 130.067 538.718 171.155C562.689 212.386 574.86 257.144 574.86 305.663C574.859 342.142 567.686 377.212 553.444 410.397Z" fill="#43B1D2"/>
<path d="M321.562 188.552C317.714 184.697 313.196 183.177 308.177 182.863C307.842 182.842 307.842 182.863 307.842 182.863C303.159 182.863 299.19 184.919 295.457 188.552L128.827 350.835C121.517 357.952 121.196 369.487 128.156 376.94C135.587 384.885 147.137 384.536 154.925 376.94L307.843 227.706L457.076 376.94C464.771 384.635 476.478 384.635 483.174 376.94C490.198 371.251 490.198 356.524 483.174 350.835L321.562 188.552Z" fill="#43B1D2"/>
</svg>
