<svg width="50" height="50" fill="none" xmlns="http://www.w3.org/2000/svg"><path d="M49.964 47.44l-2.493-12.95c-.27-1.395-1.385-2.516-2.913-2.925l-6.727-1.8c-.139-1.461-.82-2.84-1.935-3.923a7.664 7.664 0 00-3.271-1.855c.205-.202.402-.41.591-.623 1.6-1.805 2.456-3.792 2.675-5.149h.518c1.35 0 2.448-.974 2.448-2.171v-1.113c0-.799-.507-1.523-1.268-1.898v-2.677a.694.694 0 00-.246-.512.882.882 0 00-.58-.211.883.883 0 00-.58.211.694.694 0 00-.246.512v3.005a5.603 5.603 0 00-1.213.327 4.418 4.418 0 00-.266.117v-5.9c0-1.631-1.495-2.957-3.334-2.957h-2.278c-.788 0-1.552.242-2.162.684l-.224.162a2.5 2.5 0 01-1.46.462 2.5 2.5 0 01-1.46-.462l-.223-.162a3.704 3.704 0 00-2.162-.684h-2.28c-1.837 0-3.332 1.326-3.332 2.956v5.9a4.496 4.496 0 00-.266-.116 5.603 5.603 0 00-1.214-.328V5.765c0-2.37 2.175-4.3 4.848-4.3h12.178c2.673 0 4.848 1.93 4.848 4.3v1.151a.658.658 0 00.06.283.73.73 0 00.179.24.838.838 0 00.269.161.917.917 0 00.636 0 .84.84 0 00.269-.16.734.734 0 00.178-.241.661.661 0 00.06-.283v-1.15C37.588 2.584 34.673 0 31.09 0H18.911c-3.584 0-6.5 2.586-6.5 5.764v7.269c-.761.375-1.268 1.1-1.268 1.898v1.113c0 1.197 1.098 2.171 2.448 2.171h.519c.218 1.357 1.074 3.345 2.674 5.149.189.213.386.42.59.622-2.86.806-4.946 3.087-5.205 5.78l-6.727 1.8c-1.528.408-2.644 1.529-2.912 2.924L1.517 39.75a.668.668 0 00.14.546.844.844 0 00.535.299.91.91 0 00.616-.124.728.728 0 00.336-.475l1.013-5.258c.163-.844.838-1.522 1.762-1.77l6.222-1.665v1.449c-1.426.233-2.64 1.101-3.14 2.305-.132.32-.215.655-.245.995l-.6 6.845a1.67 1.67 0 00.11.755c.094.242.245.465.44.653.197.188.436.338.7.441.266.103.552.156.841.157h1.03a.882.882 0 00.583-.215.692.692 0 00.242-.518.692.692 0 00-.242-.517.881.881 0 00-.584-.215h-1.029a.496.496 0 01-.18-.033.452.452 0 01-.148-.094.392.392 0 01-.094-.14.356.356 0 01-.024-.16l.601-6.846c.019-.205.069-.408.149-.602.348-.837 1.287-1.404 2.337-1.41l.136-.002h.019c1.02 0 1.924.514 2.305 1.311.107.224.172.461.193.703l.601 6.846a.357.357 0 01-.023.16.394.394 0 01-.094.14.454.454 0 01-.15.094.498.498 0 01-.178.033h-1.03a.881.881 0 00-.583.215.693.693 0 00-.242.517c0 .195.087.38.242.518a.882.882 0 00.583.215h1.03c.289 0 .575-.054.84-.157a2.12 2.12 0 00.7-.44c.196-.19.346-.412.441-.654.095-.242.133-.5.11-.755l-.6-6.845a3.37 3.37 0 00-.32-1.161c-.544-1.138-1.707-1.93-3.076-2.144v-1.885l2.838-.76c.258.483.77 1.525 1.783 3.772a570.654 570.654 0 013.539 8.067 902.955 902.955 0 012.275 5.326c.06.14.165.26.303.345a.9.9 0 00.47.13.9.9 0 00.47-.13.753.753 0 00.303-.345 889.74 889.74 0 012.305-5.396 570.63 570.63 0 013.507-7.993c1.015-2.25 1.527-3.293 1.785-3.776l2.838.76v4.324c-1.966.34-3.456 1.877-3.456 3.719 0 2.089 1.916 3.788 4.272 3.788 2.355 0 4.272-1.7 4.272-3.788 0-1.836-1.48-3.37-3.437-3.716v-3.886l6.222 1.666c.924.247 1.6.925 1.762 1.769l2.494 12.95a.637.637 0 01-.016.313.691.691 0 01-.165.278.803.803 0 01-.281.191.895.895 0 01-.346.067H2.471a.895.895 0 01-.346-.067.804.804 0 01-.28-.191.693.693 0 01-.166-.278.638.638 0 01-.016-.314l.823-4.273a.668.668 0 00-.14-.547.843.843 0 00-.535-.298c-.449-.069-.876.2-.952.598L.036 47.44c-.061.314-.044.637.05.945.095.307.264.593.497.837.231.244.52.44.847.574.326.135.681.204 1.041.204h45.058c.36 0 .715-.07 1.041-.204.327-.134.616-.33.847-.574.233-.244.402-.53.496-.837.095-.308.112-.63.051-.945zM35.947 14.852a3.98 3.98 0 01.797-.095.933.933 0 00.404-.085.625.625 0 01.058.26v1.112c0 .39-.358.707-.797.707h-.462v-1.899zm-21.894 1.899h-.462c-.44 0-.797-.317-.797-.707v-1.113c0-.09.022-.178.058-.259a.931.931 0 00.404.085c.006.001.358 0 .797.096v1.898zm1.651.82v-1.923c.25.067.524.058.776-.036.212-.078.392-.21.52-.378a.944.944 0 00.194-.57v-6.76c0-.823.754-1.492 1.682-1.492h2.278c.407 0 .803.126 1.118.354l.223.162A4.29 4.29 0 0025 7.72c.913 0 1.797-.28 2.505-.792l.223-.162c.316-.229.71-.354 1.117-.354h2.28c.927 0 1.681.67 1.681 1.492v6.76c0 .415.28.788.714.948.246.092.52.105.776.037v1.923c0 1.069-.833 3.145-2.378 4.887a10.37 10.37 0 01-2.052 1.788A8.733 8.733 0 0125 25.699a8.733 8.733 0 01-4.94-1.501 10.377 10.377 0 01-1.978-1.74c-1.545-1.741-2.378-3.817-2.378-4.886zm14.704 11.83L25 32.987 19.591 29.4c.537-.604.837-1.38.837-2.073v-1.18A10.498 10.498 0 0025 27.164c1.782 0 3.3-.41 4.572-1.016v1.18c0 .693.3 1.469.837 2.073zm-12.194-.817a2.53 2.53 0 00-1.452-.048l-2.852.763c.483-2.103 2.409-3.778 4.867-4.102v2.131c0 .46-.231.934-.563 1.256zm2.24 5.878l-.004-.01-.146-.328-.12-.266-.008-.018-.353-.785-.025-.055-.097-.212-.034-.077-.092-.2-.027-.06-.263-.573-.064-.14-.025-.051-.018-.04c-.095-.206-.186-.4-.272-.581l-.002-.005c-.046-.097-.09-.192-.134-.282l-.066-.138 4.652 3.084-1.944.732-.01.004-.812.306-.136-.305zm1.97 4.483a701.366 701.366 0 00-1.23-2.814l.308-.117 1.258 1.298-.336 1.633zm2.592 5.951a.719.719 0 00-.084-.123c-.373-.875-.847-1.981-1.371-3.199l.77-3.742h1.337l.771 3.742c-.476 1.107-.95 2.214-1.423 3.322zm.962-8.528h-1.956l-.925-.955L25 34.697l1.903.718-.925.954zm2.09 1.447c-.165.377-.329.753-.492 1.13l-.336-1.633 1.258-1.298.308.116-.738 1.685zm3.162-7.036l-.127.267-.017.036-.131.28-.01.02-.119.257-.022.048-.028.06-.055.119-.069.148-.022.049c-.06.128-.118.257-.177.386l-.028.062-.09.199-.037.079-.095.21-.027.06-.35.774-.011.027-.118.264-.023.05-.124.28-.003.004-.137.309-.812-.306-.009-.003-1.944-.733 4.651-3.083-.066.137zm2.008-2.243h-.003a2.528 2.528 0 00-1.449.048c-.332-.322-.563-.796-.563-1.256v-2.132c1.19.153 2.298.63 3.17 1.366.873.735 1.466 1.691 1.7 2.738l-2.855-.764zm6.407 10.368c0 1.281-1.176 2.324-2.621 2.324s-2.62-1.043-2.62-2.324c0-1.282 1.175-2.324 2.62-2.324s2.62 1.042 2.62 2.324z" fill="#000"/></svg>