<svg width="50" height="50" fill="none" xmlns="http://www.w3.org/2000/svg"><g clip-path="url(#clip0)" fill="#000"><path d="M49.974 29.904V29.9a4.855 4.855 0 00-.556-1.871l-5.404-9.864a4.752 4.752 0 00-4.178-2.479h-1v-.837a2.358 2.358 0 00-1.745-2.27v-.706a3.558 3.558 0 00-7.116 0v.706a2.359 2.359 0 00-1.744 2.27v.837H4.764A4.77 4.77 0 000 20.45v18.913a4.766 4.766 0 004.764 4.759h3.419c.15.726.46 1.41.907 2.001H1.014a1.012 1.012 0 000 2.023h47.975a1.011 1.011 0 100-2.023h-8.08a5.017 5.017 0 00.908-2.001h3.42A4.766 4.766 0 0050 39.362v-9.044c0-.139-.014-.277-.026-.414zm-2.39-1.012H35.181a.451.451 0 01-.451-.45v-5.75a.45.45 0 01.45-.45h8.76l3.642 6.65zm-15.586-17.02a1.535 1.535 0 013.07 0v.615h-3.07v-.614zm-1.744 2.977a.34.34 0 01.34-.339h5.88a.34.34 0 01.34.339v.837h-6.56v-.837zM10.106 43.11a3.011 3.011 0 116.022.005 3.011 3.011 0 01-6.022-.005zm21.849 1.012c.15.726.46 1.41.907 2.001H17.14a5.016 5.016 0 00.908-2.001h13.907zm1.92-1.012a3.011 3.011 0 113.01 3.013h-.003a3.012 3.012 0 01-3.007-3.013zM45.238 42.1h-3.42a5.035 5.035 0 00-9.863 0H18.048a5.035 5.035 0 00-9.863 0H4.766a2.741 2.741 0 01-2.74-2.736v-.465h1.653a1.011 1.011 0 100-2.023H2.025V20.45a2.744 2.744 0 012.741-2.741h35.07a2.73 2.73 0 012.401 1.425l.594 1.085h-7.65a2.476 2.476 0 00-2.473 2.473v5.75a2.477 2.477 0 002.474 2.473h12.795v5.96h-1.654a1.012 1.012 0 000 2.023h1.654v.465a2.741 2.741 0 01-2.74 2.736z"/><path d="M36.887 42.063a1.05 1.05 0 100 2.1 1.05 1.05 0 000-2.1zm-23.772 0a1.05 1.05 0 100 2.1 1.05 1.05 0 000-2.1zm24.438-9.72h-1.335a1.012 1.012 0 000 2.024h1.335a1.011 1.011 0 100-2.023zM22.65 24.953h-2.62v-2.62a1.01 1.01 0 00-1.01-1.011h-3.762a1.011 1.011 0 00-1.011 1.01v2.621h-2.62a1.012 1.012 0 00-1.012 1.011v3.761a1.012 1.012 0 001.012 1.012h2.62v2.62a1.011 1.011 0 001.01 1.01h3.762a1.011 1.011 0 001.011-1.01v-2.62h2.62a1.011 1.011 0 001.012-1.012v-3.76a1.012 1.012 0 00-1.012-1.012zm-1.011 3.76h-2.62a1.012 1.012 0 00-1.012 1.012v2.62H16.27v-2.62a1.012 1.012 0 00-1.012-1.012h-2.62v-1.737h2.62a1.012 1.012 0 001.012-1.012v-2.619h1.737v2.62a1.012 1.012 0 001.012 1.011h2.62v1.737zM33.534 5.271a1.01 1.01 0 001.011-1.01V2.865a1.012 1.012 0 00-2.023 0V4.26a1.011 1.011 0 001.01 1.012h.002zm5.05 1.818c.25 0 .493-.093.678-.262l1.034-.935a1.011 1.011 0 10-1.357-1.5l-1.034.935a1.012 1.012 0 00.68 1.762zm-10.78-.262a1.012 1.012 0 001.357-1.502l-1.033-.936a1.011 1.011 0 00-1.357 1.5l1.034.938z"/></g><defs><clipPath id="clip0"><path fill="#fff" d="M0 0h50v50H0z"/></clipPath></defs></svg>