<svg width="220" height="220" fill="none" xmlns="http://www.w3.org/2000/svg"><g clip-path="url(#clip0)" fill="#000"><path d="M216.771 182.544h-3.659V79.002c0-7.478-6.084-13.562-13.562-13.562h-51.879v-.215c0-5.579-4.538-10.117-10.117-10.117h-13.992V41.116c0-5.58-4.539-10.118-10.118-10.118h-6.888c-5.579 0-10.118 4.539-10.118 10.117v13.993H82.446c-5.579 0-10.117 4.538-10.117 10.117v.215H20.45c-7.478 0-13.562 6.084-13.562 13.562v103.542H3.23a3.227 3.227 0 00-2.283 5.512 3.227 3.227 0 002.283.946h213.542a3.226 3.226 0 003.229-3.229 3.226 3.226 0 00-3.229-3.229zM199.55 71.898c3.917 0 7.104 3.187 7.104 7.104V89.55h-83.092v-7.32h13.992c5.579 0 10.117-4.538 10.117-10.117v-.215h51.879zM82.446 61.566h17.221a3.23 3.23 0 003.229-3.23v-17.22a3.664 3.664 0 013.66-3.66h6.888a3.664 3.664 0 013.66 3.66v17.22a3.23 3.23 0 003.229 3.23h17.221a3.663 3.663 0 013.659 3.66V72.112a3.663 3.663 0 01-3.659 3.66h-17.221a3.23 3.23 0 00-3.229 3.229v17.221a3.664 3.664 0 01-3.66 3.66h-6.888a3.664 3.664 0 01-3.66-3.66V79.002a3.23 3.23 0 00-3.229-3.229h-17.22a3.664 3.664 0 01-3.66-3.66v-6.888a3.664 3.664 0 013.66-3.66zM20.45 71.898H72.33v.216c0 5.578 4.538 10.117 10.117 10.117h13.992v7.319H13.346V79.002c0-3.917 3.187-7.104 7.104-7.104zm-7.104 24.11h83.092v.215c0 5.579 4.539 10.118 10.118 10.118h6.888c5.579 0 10.118-4.539 10.118-10.118v-.215h83.092v86.536H102.896v-62.211a6.68 6.68 0 00-6.673-6.674h-65.44a6.681 6.681 0 00-6.673 6.674v62.211H13.346V96.008zm83.092 58.982h-65.87v-7.319h65.87v7.319zm0-13.777h-65.87v-7.319h65.87v7.319zm-65.87 20.235h65.87v7.319h-65.87v-7.319zm65.87-34.012h-65.87v-7.103a.217.217 0 01.215-.216h65.44a.217.217 0 01.215.216v7.103zm-65.87 47.789h65.87v7.319h-65.87v-7.319z"/><path d="M113.875 171.781h33.581a3.663 3.663 0 003.659-3.66v-50.802a3.663 3.663 0 00-3.659-3.66h-33.581a3.664 3.664 0 00-3.66 3.66v50.802a3.664 3.664 0 003.66 3.66zm2.798-6.458v-31.429h27.984v31.429h-27.984zm27.984-45.206v7.319h-27.984v-7.319h27.984zm17.437 51.664h33.581a3.664 3.664 0 003.66-3.66v-50.802a3.664 3.664 0 00-3.66-3.66h-33.581a3.664 3.664 0 00-3.66 3.66v50.802a3.664 3.664 0 003.66 3.66zm2.798-6.458v-31.429h27.985v31.429h-27.985zm27.985-45.206v7.319h-27.985v-7.319h27.985z"/></g><defs><clipPath id="clip0"><path fill="#fff" d="M0 0h220v220H0z"/></clipPath></defs></svg>