<svg width="50" height="50" fill="none" xmlns="http://www.w3.org/2000/svg"><g clip-path="url(#clip0)" fill="#000"><path d="M34.048 32.61a1.01 1.01 0 00-.06-.053l-3.75-3.004a4.802 4.802 0 00-5.565-.714c-.89.482-2.283.414-2.662-.13l-6.88-9.863c-.38-.543.038-1.875.797-2.544a4.805 4.805 0 001.25-5.471l-1.524-4.558a4.722 4.722 0 00-3.273-2.847 4.72 4.72 0 00-4.172.89c-5.934 4.687-6.984 9.871-3.122 15.408L17.72 37.837c2.256 3.233 4.977 4.852 8.134 4.852 1.375 0 2.833-.307 4.372-.922v.855c0 .762-.62 1.382-1.381 1.382H18.794a.977.977 0 000 1.953h10.052a3.338 3.338 0 003.334-3.335v-1.778c.363-.197.72-.404 1.073-.62a4.735 4.735 0 002.277-3.612 4.723 4.723 0 00-1.482-4.002zm-.46 3.8a2.774 2.774 0 01-1.354 2.148c-2.708 1.66-5.123 2.38-7.18 2.136-2.17-.258-4.045-1.558-5.73-3.975L6.688 18.606c-1.687-2.417-2.26-4.626-1.752-6.754.48-2.014 1.989-4.034 4.483-6.004a2.804 2.804 0 012.48-.53 2.77 2.77 0 011.915 1.615l1.523 4.553c.009.025.018.05.029.075a2.856 2.856 0 01-.73 3.275c-1.372 1.21-2.165 3.613-1.108 5.128l6.88 9.863c1.056 1.514 3.585 1.6 5.193.73a2.854 2.854 0 013.325.444l.06.053 3.746 3c.654.634.95 1.447.854 2.356z"/><path d="M35.015 0c-7.137 0-12.944 5.809-12.944 12.948 0 2.947 1.004 5.805 2.847 8.103l-.998 3.609a.977.977 0 001.212 1.198l4.276-1.236a12.989 12.989 0 005.607 1.275c7.137 0 12.944-5.809 12.944-12.949S42.151 0 35.014 0zm0 23.944c-1.786 0-3.488-.415-5.06-1.233a.976.976 0 00-.723-.071l-2.964.857.67-2.419a.977.977 0 00-.206-.902 10.99 10.99 0 01-2.708-7.228c0-6.062 4.93-10.995 10.991-10.995 6.06 0 10.99 4.933 10.99 10.995 0 6.063-4.93 10.996-10.99 10.996z"/><path d="M40.975 9.752H38.21V6.986a.977.977 0 00-.976-.976h-4.438a.977.977 0 00-.977.976v2.766h-2.764a.977.977 0 00-.977.976v4.44c0 .54.438.977.977.977h2.764v2.765c0 .54.438.977.977.977h4.438c.54 0 .976-.437.976-.977v-2.765h2.765c.54 0 .976-.438.976-.977v-4.44a.977.977 0 00-.976-.976zm-.977 4.44h-2.764a.977.977 0 00-.977.976v2.766h-2.484v-2.766a.977.977 0 00-.977-.976h-2.764v-2.487h2.764c.54 0 .977-.437.977-.976V7.963h2.484v2.766c0 .539.438.976.977.976h2.764v2.486zM23.986 48.046H5.04a1.046 1.046 0 010-2.09h4.925a.977.977 0 000-1.953H5.04a3.002 3.002 0 00-2.999 2.998A3.002 3.002 0 005.04 50h18.946a.977.977 0 000-1.953z"/><path d="M13.585 45.523a.988.988 0 001.055.403.986.986 0 00.725-.818.984.984 0 00-.508-.99.986.986 0 00-1.139.16.989.989 0 00-.133 1.245z"/></g><defs><clipPath id="clip0"><path fill="#fff" d="M0 0h50v50H0z"/></clipPath></defs></svg>