<svg width="40" height="50" fill="none" xmlns="http://www.w3.org/2000/svg"><path d="M5.38 29.482h6.263c-3.2-5.834-4.819-10.179-4.819-12.932C6.824 9.079 12.511 3 19.5 3s12.676 6.079 12.676 13.55c0 2.753-1.62 7.098-4.82 12.931h6.264L37 47.594H2l3.38-18.113zM29.732 16.55c0-6.03-4.59-10.937-10.232-10.937-5.641 0-10.232 4.906-10.232 10.937 0 2.873 2.48 8.085 5.225 12.931.503.889 1.015 1.766 1.522 2.613A140.976 140.976 0 0019.5 37.62a140.662 140.662 0 003.485-5.526c.508-.847 1.02-1.723 1.523-2.613 2.744-4.844 5.224-10.056 5.224-12.931zm1.883 15.544h-5.739c-2.725 4.669-5.367 8.49-5.394 8.53l-.982 1.419-.982-1.418c-.027-.04-2.669-3.862-5.394-8.53h-5.74L4.98 44.981h29.04l-2.405-12.888z" fill="#929498"/><path d="M20.023 8.885c3.848 0 6.977 3.345 6.977 7.458 0 4.113-3.13 7.458-6.977 7.458-3.847 0-6.976-3.345-6.976-7.458 0-4.113 3.129-7.458 6.976-7.458zm0 12.303c2.5 0 4.533-2.173 4.533-4.845 0-2.671-2.033-4.845-4.533-4.845-2.5 0-4.532 2.174-4.532 4.845 0 2.672 2.033 4.845 4.532 4.845z" fill="#929498"/></svg>