<svg width="40" height="50" fill="none" xmlns="http://www.w3.org/2000/svg"><path d="M40 5.947C40 3.215 37.46 1 34.326 1H14.675C11.54 1 9 3.215 9 5.947v37.106C9 45.786 11.54 48 14.675 48h19.65C37.46 48 40 45.785 40 43.053V5.947zm-28.304 3.63h25.608v27.378H11.696V9.578zm2.951-6.227h19.706c1.642 0 2.951 1.193 2.951 2.625v1.253H11.696V5.974c0-1.432 1.31-2.625 2.951-2.625zm19.706 42.3H14.647c-1.619.01-2.94-1.127-2.951-2.538v-3.807h25.608v3.777c.008 1.411-1.297 2.561-2.916 2.568h-.035z" fill="#000"/><path d="M26.647 42h-5.294c-.748 0-1.353.447-1.353 1 0 .553.605 1 1.353 1h5.294c.747 0 1.353-.447 1.353-1 0-.553-.606-1-1.353-1z" fill="#000"/></svg>