<svg width="25" height="25" viewBox="0 0 25 25" fill="none" xmlns="http://www.w3.org/2000/svg">
<path d="M19.873 0H5.12695C2.29995 0 0 2.29995 0 5.12695V19.873C0 22.7 2.29995 25 5.12695 25H19.873C22.7 25 25 22.7 25 19.873V5.12695C25 2.29995 22.7 0 19.873 0ZM19.1071 18.061L18.7148 18.7148C17.1894 20.2403 13.1703 18.6944 9.73789 15.2621C6.30557 11.8298 4.75972 7.81069 6.2852 6.28516L6.93901 5.89287C7.53135 5.5375 8.29966 5.72954 8.65503 6.32188L9.58071 7.86465C9.87603 8.35679 9.79844 8.98672 9.39263 9.39258C8.82056 9.96465 8.82056 10.8921 9.39263 11.4642L13.5358 15.6074C14.1079 16.1794 15.0354 16.1794 15.6074 15.6074C15.8047 15.4101 16.0622 15.2845 16.339 15.2504C16.6159 15.2163 16.8962 15.2757 17.1354 15.4192L18.6781 16.3449C19.2704 16.7003 19.4625 17.4687 19.1071 18.061V18.061Z" fill="white"/>
</svg>
