<svg width="50" height="50" fill="none" xmlns="http://www.w3.org/2000/svg"><g clip-path="url(#clip0)" fill="#000"><path d="M49.94 27.873a5.833 5.833 0 00-4.94-4.94v-1.515c0-4.18-3.178-7.584-7.084-7.584-3.793 0-6.969 3.3-7.083 7.357h.048l-.048.008v16.422c0 5.25-3.925 9.514-8.75 9.514s-8.75-4.27-8.75-9.514V36.2c1.208 0 2.5-.876 2.5-3.333V30.77C21.181 29.402 25 24.81 25 19.603v-1.737h-1.667L23.298 7.02a4.17 4.17 0 00-3.428-4.079 2.487 2.487 0 10-.057 1.7 2.5 2.5 0 011.816 2.384l.037 10.84H20v1.763a6.627 6.627 0 01-4.797 6.217 7.578 7.578 0 01-4.583 0 6.623 6.623 0 01-4.787-6.217v-1.762h-2.5V7.033a2.5 2.5 0 011.85-2.404 2.512 2.512 0 10-.051-1.692 4.167 4.167 0 00-3.465 4.096v10.833H0v1.733c0 5.213 3.82 9.807 9.167 11.17v2.097c0 2.457 1.291 3.333 2.5 3.333v1.422c0 6.167 4.672 11.18 10.416 11.18 5.744 0 10.416-5.019 10.416-11.18V21.24c.084-3.162 2.515-5.736 5.417-5.736 2.987 0 5.417 2.654 5.417 5.917v1.512a5.833 5.833 0 106.607 4.94zM17.5 4.533a.833.833 0 110-1.667.833.833 0 010 1.667zm-10-1.667a.833.833 0 110 1.667.833.833 0 010-1.667zM1.667 19.6v-.067h2.5v.096a8.28 8.28 0 005.948 7.802 9.272 9.272 0 005.598 0 8.281 8.281 0 005.953-7.802v-.096h1.667v.067c0 4.636-3.573 8.715-8.5 9.702a11.886 11.886 0 01-4.667-.002c-4.926-.985-8.5-5.064-8.5-9.7zm10 14.933c-.75 0-.834-1.166-.834-1.666v-1.769c.067.009.135.012.203.019.083.009.166.015.25.023.394.035.791.058 1.192.06h.042c.4 0 .796-.025 1.188-.06.083-.008.172-.014.258-.023.066-.008.134-.01.2-.019v1.769c0 .5-.084 1.666-.834 1.666h-1.666zm32.499-1.666a4.167 4.167 0 110-8.334 4.167 4.167 0 010 8.334z"/><path d="M44.166 26.2a2.5 2.5 0 100 5 2.5 2.5 0 000-5zm0 3.332a.833.833 0 110-1.666.833.833 0 010 1.666z"/></g><defs><clipPath id="clip0"><path fill="#fff" d="M0 0h50v50H0z"/></clipPath></defs></svg>