<svg width="50" height="50" fill="none" xmlns="http://www.w3.org/2000/svg"><path d="M36.964 30.15c-.744-.946-1.62-1.754-2.449-2.612-.747-.773-.795-1.222-.194-2.114.657-.974 1.362-1.91 2.024-2.88.618-.907 1.25-1.81 1.575-2.895.206-.69.023-.995-.644-1.116a1.95 1.95 0 00-.351-.023l-3.961-.005c-.488-.007-.758.218-.93.677-.233.62-.474 1.239-.751 1.837-.63 1.355-1.333 2.666-2.319 3.776-.217.244-.457.553-.82.426-.455-.176-.589-.97-.581-1.238l-.004-4.847c-.088-.693-.233-1.001-.882-1.136h-4.114c-.55 0-.825.226-1.118.59-.17.21-.22.347.127.417.683.137 1.068.606 1.17 1.332.163 1.16.152 2.324.058 3.489a3.41 3.41 0 01-.21.997c-.2.499-.52.6-.943.293-.382-.278-.65-.67-.913-1.064-.987-1.478-1.774-3.072-2.416-4.748-.186-.484-.506-.777-.99-.785a95.022 95.022 0 00-3.565.001c-.715.015-.928.383-.637 1.07 1.295 3.052 2.735 6.02 4.616 8.723.966 1.388 2.074 2.612 3.506 3.48 1.624.984 3.37 1.28 5.211 1.19.862-.044 1.12-.281 1.16-1.192.027-.623.094-1.242.384-1.802.284-.55.715-.654 1.212-.312.248.171.458.389.655.618.485.563.953 1.143 1.456 1.686.632.681 1.38 1.084 2.32 1.002h3.641c.587-.04.89-.803.554-1.497-.237-.486-.547-.919-.877-1.338z" fill="#000"/></svg>