<svg width="50" height="50" fill="none" xmlns="http://www.w3.org/2000/svg"><path d="M34.654 25.657c-.245-1.123-1.115-1.95-2.162-2.074-2.48-.292-4.99-.293-7.489-.292-2.5-.002-5.01 0-7.49.292-1.046.124-1.916.952-2.16 2.074C15.004 27.255 15 29 15 30.645c0 1.646 0 3.39.349 4.989.244 1.122 1.114 1.95 2.16 2.073 2.48.293 4.99.294 7.49.293 2.5.001 5.01 0 7.49-.293 1.046-.123 1.916-.951 2.16-2.073.35-1.599.351-3.343.351-4.989s.002-3.39-.346-4.988zm-13.95 1.238h-1.447v8.117h-1.344v-8.117H16.49v-1.329h4.214v1.33zm3.653 8.117h-1.21v-.768c-.48.581-.936.865-1.381.865-.39 0-.658-.167-.779-.523-.065-.213-.106-.55-.106-1.047v-5.565h1.208v5.182c0 .299 0 .454.011.496.03.198.12.298.283.298.242 0 .496-.197.764-.597v-5.38h1.21v7.039zm4.591-2.112c0 .65-.041 1.12-.122 1.418-.161.523-.485.79-.965.79-.43 0-.845-.251-1.25-.778v.682h-1.208v-9.446h1.208v3.085c.39-.507.805-.764 1.25-.764.48 0 .804.268.965.794.081.284.122.75.122 1.415V32.9zm4.562-1.175h-2.418v1.248c0 .651.202.977.618.977.297 0 .47-.171.54-.512.01-.069.027-.352.027-.864h1.233v.186c0 .411-.015.695-.026.822-.04.282-.136.538-.282.764-.335.511-.83.763-1.462.763s-1.114-.24-1.463-.72c-.256-.353-.388-.908-.388-1.656v-2.465c0-.752.117-1.303.374-1.658.349-.482.83-.722 1.447-.722.607 0 1.087.24 1.426.722.253.355.374.906.374 1.658v1.457z" fill="#000"/><path d="M31.7 29.036c-.404 0-.607.325-.607.976v.651h1.208v-.65c0-.652-.202-.977-.602-.977zM27.214 29.036c-.2 0-.401.1-.603.31v4.29c.202.213.404.314.603.314.348 0 .525-.314.525-.95v-3.004c0-.634-.177-.96-.525-.96zM27.89 22.642c.445 0 .908-.285 1.394-.873v.776h1.222v-7.113h-1.222v5.436c-.27.404-.527.603-.771.603-.164 0-.26-.102-.287-.302-.014-.042-.014-.199-.014-.5v-5.237h-1.218v5.624c0 .502.04.842.108 1.058.123.36.394.528.787.528zM19.385 18.679v3.866h1.355v-3.866L22.37 13H21l-.925 3.748L19.114 13h-1.425c.285.885.582 1.774.868 2.66.434 1.33.706 2.334.828 3.019zM24.185 22.642c.612 0 1.087-.243 1.425-.728.256-.356.379-.917.379-1.673v-2.49c0-.76-.123-1.317-.38-1.676-.337-.486-.812-.73-1.424-.73-.609 0-1.084.244-1.422.73-.26.36-.383.915-.383 1.676v2.49c0 .756.123 1.317.383 1.673.337.485.813.728 1.422.728zm-.583-5.15c0-.658.19-.986.583-.986.394 0 .582.328.582.986v2.992c0 .658-.188.988-.582.988-.394 0-.583-.33-.583-.988v-2.992z" fill="#000"/></svg>